<svg width="144" height="144" viewBox="0 0 144 144" fill="none" xmlns="http://www.w3.org/2000/svg">
<rect width="144" height="144" rx="16" fill="url(#paint0_linear)"/>
<mask id="mask0" mask-type="alpha" maskUnits="userSpaceOnUse" x="0" y="0" width="144" height="144">
<rect width="144" height="144" rx="16" fill="#989BB3"/>
</mask>
<g mask="url(#mask0)">
<g opacity="0.25" filter="url(#filter0_f)">
<rect x="-8" y="-8" width="160" height="160" fill="#8A5AED"/>
<path d="M52 27H122V102C122 110.284 113.046 117 102 117C90.9543 117 82 110.284 82 102C82 93.7157 90.9543 87 102 87H112V37H62V102C62 110.284 53.0457 117 42 117C30.9543 117 22 110.284 22 102C22 93.7157 30.9543 87 42 87H52V27Z" fill="#F4F4FA"/>
</g>
<rect x="68" y="62" width="34" height="4" fill="#F4F4FA"/>
<rect x="68" y="70" width="22" height="4" fill="#F4F4FA"/>
<rect x="68" y="78" width="48" height="4" fill="#F4F4FA"/>
<rect x="27" y="55" width="34" height="34" fill="#8A5AED" stroke="#303A50" stroke-width="2"/>
<path d="M40 63H54V78C54 79.6569 52.2091 81 50 81C47.7909 81 46 79.6569 46 78C46 76.3431 47.7909 75 50 75H52V65H42V78C42 79.6569 40.2091 81 38 81C35.7909 81 34 79.6569 34 78C34 76.3431 35.7909 75 38 75H40V63Z" fill="#F4F4FA"/>
</g>
<defs>
<filter id="filter0_f" x="-16" y="-16" width="176" height="176" filterUnits="userSpaceOnUse" color-interpolation-filters="sRGB">
<feFlood flood-opacity="0" result="BackgroundImageFix"/>
<feBlend mode="normal" in="SourceGraphic" in2="BackgroundImageFix" result="shape"/>
<feGaussianBlur stdDeviation="4" result="effect1_foregroundBlur"/>
</filter>
<linearGradient id="paint0_linear" x1="144" y1="0" x2="0" y2="144" gradientUnits="userSpaceOnUse">
<stop stop-color="#CFBAF7"/>
<stop offset="0.0001" stop-color="#F5F1FD"/>
<stop offset="1" stop-color="#743FCF"/>
<stop offset="1" stop-color="#400679"/>
</linearGradient>
</defs>
</svg>
