<svg width="24" height="24" viewBox="0 0 24 24" fill="none" xmlns="http://www.w3.org/2000/svg">
<rect x="3" y="3" width="18" height="18" fill="#676B7E" stroke="#676B7E" stroke-width="2"/>
<rect x="5" y="5" width="14" height="14" fill="#F4F4FA" stroke="#F4F4FA" stroke-width="2"/>
<path d="M12 15L10 16.5C10.4808 17.1411 11.2398 17.5128 12.041 17.4997C12.8422 17.4865 13.5886 17.0901 14.0481 16.4337L12 15ZM11 9.5C10.1716 8.39543 8.60457 8.17157 7.5 9C6.39543 9.82843 6.17157 11.3954 7 12.5L11 9.5ZM21.0481 6.43366C21.8399 5.30253 21.5648 3.74371 20.4337 2.95192C19.3025 2.16013 17.7437 2.43522 16.9519 3.56634L21.0481 6.43366ZM14 13.5L11 9.5L7 12.5L10 16.5L14 13.5ZM14.0481 16.4337L21.0481 6.43366L16.9519 3.56634L9.95192 13.5663L14.0481 16.4337Z" fill="#676B7E"/>
<path d="M12 15L11.2 15.6C11.3923 15.8564 11.6959 16.0051 12.0164 15.9999C12.3369 15.9946 12.6354 15.8361 12.8192 15.5735L12 15ZM9.8 10.4C9.46863 9.95817 8.84183 9.86863 8.4 10.2C7.95817 10.5314 7.86863 11.1582 8.2 11.6L9.8 10.4ZM19.8192 5.57346C20.1359 5.12101 20.0259 4.49748 19.5735 4.18077C19.121 3.86405 18.4975 3.97409 18.1808 4.42654L19.8192 5.57346ZM12.8 14.4L9.8 10.4L8.2 11.6L11.2 15.6L12.8 14.4ZM12.8192 15.5735L19.8192 5.57346L18.1808 4.42654L11.1808 14.4265L12.8192 15.5735Z" fill="#F4F4FA"/>
</svg>
