<svg width="144" height="144" viewBox="0 0 144 144" fill="none" xmlns="http://www.w3.org/2000/svg">
<path d="M29.2823 44.6991L38.3393 29.3646C38.3599 29.3297 38.3893 29.3007 38.4246 29.2806C38.4599 29.2605 38.4998 29.25 38.5404 29.25H114.517C114.558 29.2496 114.598 29.2602 114.634 29.2808C114.67 29.3013 114.7 29.331 114.72 29.3668C114.741 29.4026 114.751 29.4433 114.751 29.4845C114.75 29.5258 114.739 29.5662 114.718 29.6016L105.661 44.9346C105.64 44.9696 105.611 44.9985 105.575 45.0186C105.54 45.0387 105.5 45.0493 105.46 45.0492H29.4834C29.4424 45.0495 29.402 45.0388 29.3664 45.0184C29.3308 44.9979 29.3013 44.9684 29.2808 44.9328C29.2604 44.8972 29.2497 44.8568 29.25 44.8157C29.2503 44.7747 29.2614 44.7344 29.2823 44.6991Z" fill="#989BB3" stroke="#989BB3" stroke-width="4.5" stroke-miterlimit="10"/>
<path d="M29.2822 114.398L38.3391 99.0639C38.3598 99.029 38.3892 99 38.4245 98.9799C38.4597 98.9598 38.4996 98.9493 38.5402 98.9493H114.516C114.558 98.9489 114.598 98.9595 114.634 98.98C114.67 99.0006 114.7 99.0303 114.72 99.0661C114.741 99.1019 114.751 99.1426 114.751 99.1838C114.75 99.2251 114.739 99.2655 114.718 99.3009L105.661 114.635C105.64 114.67 105.61 114.699 105.575 114.719C105.54 114.739 105.5 114.75 105.459 114.75H29.4833C29.442 114.75 29.4014 114.74 29.3656 114.719C29.3298 114.699 29.3001 114.669 29.2796 114.633C29.2592 114.597 29.2486 114.557 29.249 114.515C29.2495 114.474 29.2609 114.434 29.2822 114.398Z" fill="#989BB3" stroke="#989BB3" stroke-width="4.5" stroke-miterlimit="10"/>
<path d="M49.8116 79.5494L58.8686 64.215C58.8892 64.18 58.9186 64.1511 58.9539 64.131C58.9892 64.1109 59.0291 64.1003 59.0697 64.1004H94.4544C94.4957 64.1 94.5363 64.1106 94.5721 64.1311C94.6079 64.1516 94.6376 64.1813 94.6581 64.2172C94.6786 64.253 94.6891 64.2936 94.6887 64.3349C94.6882 64.3761 94.6768 64.4165 94.6555 64.4519L85.5986 79.785C85.5779 79.8199 85.5485 79.8488 85.5132 79.8689C85.478 79.889 85.4381 79.8996 85.3975 79.8996H50.0127C49.9717 79.8998 49.9313 79.8892 49.8957 79.8687C49.8601 79.8482 49.8306 79.8187 49.8101 79.7831C49.7897 79.7475 49.779 79.7071 49.7793 79.666C49.7796 79.625 49.7907 79.5848 49.8116 79.5494Z" fill="#989BB3" stroke="#989BB3" stroke-width="4.5" stroke-miterlimit="10"/>
</svg>
