<svg id="Layer_1" data-name="Layer 1" xmlns="http://www.w3.org/2000/svg" viewBox="0 0 708.77 179.33"><defs><style>.cls-1{fill:#fff;}</style></defs><title>lastfm-logo</title><g id="g3"><path id="path5" class="cls-1" d="M158.43,165.5l-8.35-22.71s-13.58,15.14-33.94,15.14c-18,0-30.8-15.66-30.8-40.72,0-32.11,16.18-43.59,32.11-43.59,23,0,30.28,14.88,36.54,33.93l8.36,26.11c8.35,25.31,24,45.67,69.17,45.67,32.37,0,54.29-9.91,54.29-36,0-21.14-12-32.1-34.46-37.32l-16.7-3.66c-11.48-2.61-14.88-7.31-14.88-15.14,0-8.87,7-14.09,18.54-14.09,12.52,0,19.31,4.69,20.36,15.92l26.1-3.13c-2.09-23.5-18.27-33.15-44.9-33.15-23.49,0-46.46,8.87-46.46,37.32,0,17.75,8.61,29,30.28,34.2l17.75,4.17c13.31,3.13,17.75,8.62,17.75,16.19,0,9.65-9.4,13.57-27.15,13.57-26.36,0-37.32-13.84-43.59-32.89l-8.61-26.1c-11-33.94-28.46-46.47-63.17-46.47C78.3,52.73,57.94,77,57.94,118.25c0,39.68,20.36,61.08,56.9,61.08,29.49,0,43.59-13.83,43.59-13.83Z"/><path id="path7" class="cls-1" d="M46.73,153.23a28.55,28.55,0,0,1-8.62,1.31c-6.26,0-10.7-2.87-10.7-10.45V1.83H0V150.62c0,19.58,13.57,27.67,29.5,27.67a65.39,65.39,0,0,0,16.44-2.35l.79-22.71Z"/><path id="path9" class="cls-1" d="M376.91,149.05c-6.79,4.7-12.53,7-20.36,7-9.92,0-15.4-5.22-15.4-18V77h36V55.6H341.41v-29L313.74,30V55.6H296.25V77h17.49v66.82c0,24,13.84,35.5,36.28,35.5,12.27,0,23.24-2.34,31.85-7.3l-5-23Z"/><path id="path11" class="cls-1" d="M400.72,158.45a19.32,19.32,0,1,0,38.63,0c0-11-8.35-19.31-19.58-19.31a18.89,18.89,0,0,0-19,19.31Z"/><path id="path13" class="cls-1" d="M467.73,77V176.2h27.41V77h30.8V55.6h-30.8v-11c0-16.45,7-21.67,18.53-21.67,8.09,0,13.57,1.83,19.84,5.22l4.44-23C530.64,1.83,522,0,511.58,0c-23,0-43.85,11-43.85,43.59v12H450.24V77Z"/><path id="path15" class="cls-1" d="M635.15,79.36C632,59.78,619.23,52.73,602.52,52.73s-31.06,7.57-37.32,26.1L561.8,55.6H539.61V176.2H567V108.07C567,84.84,579,76,591.82,76c13.31,0,18.8,8.88,18.8,23.23v77h27.14V107.81c0-23,12.27-31.85,25.06-31.85,13.06,0,18.54,8.88,18.54,23.23v77h27.41V89.54c0-25.84-15.14-36.81-35.24-36.81-17,0-32.11,7.57-38.38,26.63Z"/></g></svg>