<svg width="704" height="467" viewBox="0 0 704 467" fill="none" xmlns="http://www.w3.org/2000/svg">
<path d="M42.5001 351.768C37.7001 351.768 33.4761 350.84 29.8281 348.984C26.1801 347.064 23.3641 344.408 21.3801 341.016C19.3961 337.624 18.4041 333.688 18.4041 329.208V305.496C18.4041 301.016 19.3961 297.08 21.3801 293.688C23.3641 290.296 26.1801 287.672 29.8281 285.816C33.4761 283.96 37.7001 283.032 42.5001 283.032C47.2361 283.032 51.4281 283.928 55.0761 285.72C58.7241 287.512 61.5401 290.04 63.5241 293.304C65.5081 296.568 66.5001 300.344 66.5001 304.632C66.5001 304.952 66.3721 305.24 66.1161 305.496C65.9241 305.688 65.6681 305.784 65.3481 305.784L56.5161 306.264C55.7481 306.264 55.3641 305.912 55.3641 305.208C55.3641 301.432 54.1801 298.392 51.8121 296.088C49.5081 293.784 46.4041 292.632 42.5001 292.632C38.5961 292.632 35.4601 293.784 33.0921 296.088C30.7241 298.392 29.5401 301.432 29.5401 305.208V329.688C29.5401 333.4 30.7241 336.408 33.0921 338.712C35.4601 341.016 38.5961 342.168 42.5001 342.168C46.4041 342.168 49.5081 341.048 51.8121 338.808C54.1801 336.504 55.3641 333.464 55.3641 329.688C55.3641 328.984 55.7481 328.632 56.5161 328.632L65.3481 329.016C65.6681 329.016 65.9241 329.112 66.1161 329.304C66.3721 329.496 66.5001 329.72 66.5001 329.976C66.5001 334.328 65.5081 338.168 63.5241 341.496C61.5401 344.76 58.7241 347.288 55.0761 349.08C51.4281 350.872 47.2361 351.768 42.5001 351.768ZM103.978 303.096C103.978 302.776 104.074 302.52 104.266 302.328C104.522 302.072 104.81 301.944 105.13 301.944H113.866C114.186 301.944 114.442 302.072 114.634 302.328C114.89 302.52 115.018 302.776 115.018 303.096V349.848C115.018 350.168 114.89 350.456 114.634 350.712C114.442 350.904 114.186 351 113.866 351H105.13C104.81 351 104.522 350.904 104.266 350.712C104.074 350.456 103.978 350.168 103.978 349.848V346.776C103.978 346.584 103.914 346.456 103.786 346.392C103.658 346.328 103.53 346.392 103.402 346.584C100.778 349.976 96.8424 351.672 91.5944 351.672C86.7304 351.672 82.6344 350.264 79.3064 347.448C76.0424 344.632 74.4104 340.632 74.4104 335.448V303.096C74.4104 302.776 74.5064 302.52 74.6984 302.328C74.9544 302.072 75.2424 301.944 75.5624 301.944H84.3944C84.7144 301.944 84.9704 302.072 85.1624 302.328C85.4184 302.52 85.5464 302.776 85.5464 303.096V332.28C85.5464 335.288 86.3144 337.688 87.8504 339.48C89.4504 341.272 91.6584 342.168 94.4744 342.168C97.3544 342.168 99.6584 341.272 101.386 339.48C103.114 337.688 103.978 335.288 103.978 332.28V303.096ZM147.372 301.368C149.42 301.368 151.212 301.784 152.748 302.616C153.26 302.872 153.452 303.352 153.324 304.056L151.692 312.696C151.628 313.464 151.18 313.688 150.348 313.368C149.388 313.048 148.268 312.888 146.988 312.888C146.156 312.888 145.516 312.92 145.068 312.984C142.38 313.112 140.14 314.072 138.348 315.864C136.556 317.592 135.66 319.864 135.66 322.68V349.848C135.66 350.168 135.532 350.456 135.276 350.712C135.084 350.904 134.828 351 134.508 351H125.676C125.356 351 125.068 350.904 124.812 350.712C124.62 350.456 124.524 350.168 124.524 349.848V303.096C124.524 302.776 124.62 302.52 124.812 302.328C125.068 302.072 125.356 301.944 125.676 301.944H134.508C134.828 301.944 135.084 302.072 135.276 302.328C135.532 302.52 135.66 302.776 135.66 303.096V307.416C135.66 307.672 135.692 307.832 135.756 307.896C135.884 307.896 136.012 307.8 136.14 307.608C138.828 303.448 142.572 301.368 147.372 301.368ZM181.066 301.368C183.114 301.368 184.906 301.784 186.442 302.616C186.954 302.872 187.146 303.352 187.018 304.056L185.386 312.696C185.322 313.464 184.874 313.688 184.042 313.368C183.082 313.048 181.962 312.888 180.682 312.888C179.85 312.888 179.21 312.92 178.762 312.984C176.074 313.112 173.834 314.072 172.042 315.864C170.25 317.592 169.354 319.864 169.354 322.68V349.848C169.354 350.168 169.226 350.456 168.97 350.712C168.778 350.904 168.522 351 168.202 351H159.37C159.05 351 158.762 350.904 158.506 350.712C158.314 350.456 158.218 350.168 158.218 349.848V303.096C158.218 302.776 158.314 302.52 158.506 302.328C158.762 302.072 159.05 301.944 159.37 301.944H168.202C168.522 301.944 168.778 302.072 168.97 302.328C169.226 302.52 169.354 302.776 169.354 303.096V307.416C169.354 307.672 169.386 307.832 169.45 307.896C169.578 307.896 169.706 307.8 169.834 307.608C172.522 303.448 176.266 301.368 181.066 301.368ZM232.35 320.952C232.606 322.552 232.734 324.344 232.734 326.328L232.638 329.304C232.638 330.072 232.254 330.456 231.486 330.456H201.438C201.118 330.456 200.958 330.616 200.958 330.936C201.15 333.048 201.438 334.488 201.822 335.256C203.358 339.864 207.102 342.2 213.054 342.264C217.406 342.264 220.862 340.472 223.422 336.888C223.678 336.504 223.998 336.312 224.382 336.312C224.638 336.312 224.862 336.408 225.054 336.6L231.006 341.496C231.582 341.944 231.678 342.456 231.294 343.032C229.31 345.848 226.654 348.024 223.326 349.56C220.062 351.096 216.414 351.864 212.382 351.864C207.39 351.864 203.134 350.744 199.614 348.504C196.158 346.264 193.63 343.128 192.03 339.096C190.558 335.64 189.822 330.84 189.822 324.696C189.822 320.984 190.206 317.976 190.974 315.672C192.254 311.192 194.654 307.672 198.174 305.112C201.758 302.488 206.046 301.176 211.038 301.176C223.646 301.176 230.75 307.768 232.35 320.952ZM211.038 310.776C208.67 310.776 206.686 311.384 205.086 312.6C203.55 313.752 202.462 315.384 201.822 317.496C201.438 318.584 201.182 319.992 201.054 321.72C200.926 322.04 201.054 322.2 201.438 322.2H220.926C221.246 322.2 221.406 322.04 221.406 321.72C221.278 320.12 221.086 318.904 220.83 318.072C220.254 315.768 219.102 313.976 217.374 312.696C215.71 311.416 213.598 310.776 211.038 310.776ZM264.031 301.176C269.215 301.176 273.343 302.712 276.415 305.784C279.551 308.856 281.119 313.048 281.119 318.36V349.848C281.119 350.168 280.991 350.456 280.735 350.712C280.543 350.904 280.287 351 279.967 351H271.135C270.815 351 270.527 350.904 270.271 350.712C270.079 350.456 269.983 350.168 269.983 349.848V320.664C269.983 317.72 269.151 315.352 267.487 313.56C265.823 311.704 263.615 310.776 260.863 310.776C258.111 310.776 255.871 311.672 254.143 313.464C252.479 315.256 251.647 317.624 251.647 320.568V349.848C251.647 350.168 251.519 350.456 251.263 350.712C251.071 350.904 250.815 351 250.495 351H241.663C241.343 351 241.055 350.904 240.799 350.712C240.607 350.456 240.511 350.168 240.511 349.848V303.096C240.511 302.776 240.607 302.52 240.799 302.328C241.055 302.072 241.343 301.944 241.663 301.944H250.495C250.815 301.944 251.071 302.072 251.263 302.328C251.519 302.52 251.647 302.776 251.647 303.096V306.168C251.647 306.36 251.711 306.488 251.839 306.552C251.967 306.616 252.063 306.552 252.127 306.36C254.751 302.904 258.719 301.176 264.031 301.176ZM316.346 309.816C316.346 310.136 316.218 310.424 315.962 310.68C315.77 310.872 315.514 310.968 315.194 310.968H305.402C305.082 310.968 304.922 311.128 304.922 311.448V334.584C304.922 337.016 305.434 338.776 306.458 339.864C307.546 340.952 309.242 341.496 311.546 341.496H314.426C314.746 341.496 315.002 341.624 315.194 341.88C315.45 342.072 315.578 342.328 315.578 342.648V349.848C315.578 350.552 315.194 350.968 314.426 351.096L309.434 351.192C304.378 351.192 300.602 350.328 298.106 348.6C295.61 346.872 294.33 343.608 294.266 338.808V311.448C294.266 311.128 294.106 310.968 293.786 310.968H288.314C287.994 310.968 287.706 310.872 287.45 310.68C287.258 310.424 287.162 310.136 287.162 309.816V303.096C287.162 302.776 287.258 302.52 287.45 302.328C287.706 302.072 287.994 301.944 288.314 301.944H293.786C294.106 301.944 294.266 301.784 294.266 301.464V290.232C294.266 289.912 294.362 289.656 294.554 289.464C294.81 289.208 295.098 289.08 295.418 289.08H303.77C304.09 289.08 304.346 289.208 304.538 289.464C304.794 289.656 304.922 289.912 304.922 290.232V301.464C304.922 301.784 305.082 301.944 305.402 301.944H315.194C315.514 301.944 315.77 302.072 315.962 302.328C316.218 302.52 316.346 302.776 316.346 303.096V309.816ZM324.988 351C324.668 351 324.38 350.904 324.124 350.712C323.932 350.456 323.836 350.168 323.836 349.848V284.952C323.836 284.632 323.932 284.376 324.124 284.184C324.38 283.928 324.668 283.8 324.988 283.8H333.82C334.14 283.8 334.396 283.928 334.588 284.184C334.844 284.376 334.972 284.632 334.972 284.952V349.848C334.972 350.168 334.844 350.456 334.588 350.712C334.396 350.904 334.14 351 333.82 351H324.988ZM343.445 370.104C343.253 370.104 343.093 369.976 342.965 369.72C342.837 369.528 342.773 369.272 342.773 368.952V362.04C342.773 361.72 342.869 361.432 343.061 361.176C343.317 360.984 343.605 360.888 343.925 360.888H344.021C346.645 360.824 348.693 360.536 350.165 360.024C351.637 359.576 352.853 358.68 353.813 357.336C354.773 355.992 355.637 353.976 356.405 351.288C356.469 351.16 356.469 350.968 356.405 350.712L340.565 303.192C340.501 303.064 340.469 302.904 340.469 302.712C340.469 302.136 340.789 301.848 341.429 301.848H350.837C351.541 301.848 351.989 302.168 352.181 302.808L361.781 336.6C361.845 336.792 361.941 336.888 362.069 336.888C362.197 336.888 362.293 336.792 362.357 336.6L371.957 302.808C372.149 302.168 372.597 301.848 373.301 301.848H382.421C382.805 301.848 383.061 301.976 383.189 302.232C383.381 302.424 383.413 302.744 383.285 303.192L366.389 353.688C364.789 358.232 363.221 361.624 361.685 363.864C360.149 366.104 358.037 367.704 355.349 368.664C352.725 369.624 348.981 370.104 344.117 370.104H343.445ZM433.825 283.704C437.857 283.704 441.409 284.536 444.481 286.2C447.553 287.864 449.921 290.232 451.585 293.304C453.313 296.312 454.177 299.8 454.177 303.768C454.177 307.672 453.313 311.128 451.585 314.136C449.857 317.144 447.393 319.48 444.193 321.144C441.057 322.744 437.409 323.544 433.249 323.544H417.889C417.569 323.544 417.409 323.704 417.409 324.024V349.848C417.409 350.168 417.281 350.456 417.025 350.712C416.833 350.904 416.577 351 416.257 351H407.425C407.105 351 406.817 350.904 406.561 350.712C406.369 350.456 406.273 350.168 406.273 349.848V284.856C406.273 284.536 406.369 284.28 406.561 284.088C406.817 283.832 407.105 283.704 407.425 283.704H433.825ZM432.193 314.52C435.457 314.52 438.081 313.56 440.065 311.64C442.049 309.72 443.041 307.192 443.041 304.056C443.041 300.856 442.049 298.264 440.065 296.28C438.081 294.296 435.457 293.304 432.193 293.304H417.889C417.569 293.304 417.409 293.464 417.409 293.784V314.04C417.409 314.36 417.569 314.52 417.889 314.52H432.193ZM461.638 351C461.318 351 461.03 350.904 460.774 350.712C460.582 350.456 460.486 350.168 460.486 349.848V284.952C460.486 284.632 460.582 284.376 460.774 284.184C461.03 283.928 461.318 283.8 461.638 283.8H470.47C470.79 283.8 471.046 283.928 471.238 284.184C471.494 284.376 471.622 284.632 471.622 284.952V349.848C471.622 350.168 471.494 350.456 471.238 350.712C471.046 350.904 470.79 351 470.47 351H461.638ZM499.775 301.176C503.807 301.176 507.359 301.88 510.431 303.288C513.503 304.696 515.871 306.648 517.535 309.144C519.199 311.576 520.031 314.36 520.031 317.496V349.848C520.031 350.168 519.903 350.456 519.647 350.712C519.455 350.904 519.199 351 518.879 351H510.047C509.727 351 509.439 350.904 509.183 350.712C508.991 350.456 508.895 350.168 508.895 349.848V346.776C508.895 346.584 508.831 346.488 508.703 346.488C508.575 346.424 508.447 346.456 508.319 346.584C505.183 350.04 500.639 351.768 494.687 351.768C489.887 351.768 485.919 350.552 482.783 348.12C479.711 345.688 478.175 342.072 478.175 337.272C478.175 332.28 479.903 328.408 483.359 325.656C486.879 322.84 491.807 321.432 498.143 321.432H508.415C508.735 321.432 508.895 321.272 508.895 320.952V318.648C508.895 316.152 508.159 314.232 506.687 312.888C505.215 311.48 503.007 310.776 500.063 310.776C497.631 310.776 495.647 311.224 494.111 312.12C492.639 312.952 491.711 314.136 491.327 315.672C491.135 316.44 490.687 316.76 489.983 316.632L480.671 315.48C480.351 315.416 480.063 315.32 479.807 315.192C479.615 315 479.551 314.776 479.615 314.52C480.127 310.616 482.207 307.416 485.855 304.92C489.567 302.424 494.207 301.176 499.775 301.176ZM497.471 342.936C500.607 342.936 503.295 342.104 505.535 340.44C507.775 338.776 508.895 336.664 508.895 334.104V329.592C508.895 329.272 508.735 329.112 508.415 329.112H500.351C496.959 329.112 494.271 329.752 492.287 331.032C490.367 332.312 489.407 334.136 489.407 336.504C489.407 338.552 490.143 340.152 491.615 341.304C493.151 342.392 495.103 342.936 497.471 342.936ZM526.82 370.104C526.628 370.104 526.468 369.976 526.34 369.72C526.212 369.528 526.148 369.272 526.148 368.952V362.04C526.148 361.72 526.244 361.432 526.436 361.176C526.692 360.984 526.98 360.888 527.3 360.888H527.396C530.02 360.824 532.068 360.536 533.54 360.024C535.012 359.576 536.228 358.68 537.188 357.336C538.148 355.992 539.012 353.976 539.78 351.288C539.844 351.16 539.844 350.968 539.78 350.712L523.94 303.192C523.876 303.064 523.844 302.904 523.844 302.712C523.844 302.136 524.164 301.848 524.804 301.848H534.212C534.916 301.848 535.364 302.168 535.556 302.808L545.156 336.6C545.22 336.792 545.316 336.888 545.444 336.888C545.572 336.888 545.668 336.792 545.732 336.6L555.332 302.808C555.524 302.168 555.972 301.848 556.676 301.848H565.796C566.18 301.848 566.436 301.976 566.564 302.232C566.756 302.424 566.788 302.744 566.66 303.192L549.764 353.688C548.164 358.232 546.596 361.624 545.06 363.864C543.524 366.104 541.412 367.704 538.724 368.664C536.1 369.624 532.356 370.104 527.492 370.104H526.82ZM578.685 295.224C576.701 295.224 575.069 294.584 573.789 293.304C572.509 292.024 571.869 290.392 571.869 288.408C571.869 286.424 572.509 284.792 573.789 283.512C575.069 282.232 576.701 281.592 578.685 281.592C580.669 281.592 582.301 282.232 583.581 283.512C584.861 284.792 585.501 286.424 585.501 288.408C585.501 290.392 584.861 292.024 583.581 293.304C582.301 294.584 580.669 295.224 578.685 295.224ZM574.077 351C573.757 351 573.469 350.904 573.213 350.712C573.021 350.456 572.925 350.168 572.925 349.848V303C572.925 302.68 573.021 302.424 573.213 302.232C573.469 301.976 573.757 301.848 574.077 301.848H582.909C583.229 301.848 583.485 301.976 583.677 302.232C583.933 302.424 584.061 302.68 584.061 303V349.848C584.061 350.168 583.933 350.456 583.677 350.712C583.485 350.904 583.229 351 582.909 351H574.077ZM617.938 301.176C623.122 301.176 627.25 302.712 630.322 305.784C633.458 308.856 635.026 313.048 635.026 318.36V349.848C635.026 350.168 634.898 350.456 634.642 350.712C634.45 350.904 634.194 351 633.874 351H625.042C624.722 351 624.434 350.904 624.178 350.712C623.986 350.456 623.89 350.168 623.89 349.848V320.664C623.89 317.72 623.058 315.352 621.394 313.56C619.73 311.704 617.522 310.776 614.77 310.776C612.018 310.776 609.778 311.672 608.05 313.464C606.386 315.256 605.554 317.624 605.554 320.568V349.848C605.554 350.168 605.426 350.456 605.17 350.712C604.978 350.904 604.722 351 604.402 351H595.57C595.25 351 594.962 350.904 594.706 350.712C594.514 350.456 594.418 350.168 594.418 349.848V303.096C594.418 302.776 594.514 302.52 594.706 302.328C594.962 302.072 595.25 301.944 595.57 301.944H604.402C604.722 301.944 604.978 302.072 605.17 302.328C605.426 302.52 605.554 302.776 605.554 303.096V306.168C605.554 306.36 605.618 306.488 605.746 306.552C605.874 306.616 605.97 306.552 606.034 306.36C608.658 302.904 612.626 301.176 617.938 301.176ZM674.284 303.096C674.284 302.776 674.38 302.52 674.572 302.328C674.828 302.072 675.116 301.944 675.436 301.944H684.268C684.588 301.944 684.844 302.072 685.036 302.328C685.292 302.52 685.42 302.776 685.42 303.096V347.736C685.42 355.736 683.116 361.432 678.508 364.824C673.964 368.28 667.98 370.008 660.556 370.008C658.572 370.008 656.62 369.912 654.7 369.72C653.996 369.656 653.644 369.24 653.644 368.472L653.932 360.6C653.932 359.896 654.38 359.544 655.276 359.544C657.132 359.736 658.796 359.832 660.268 359.832C665.068 359.832 668.588 358.872 670.828 356.952C673.132 355.096 674.284 351.928 674.284 347.448V346.68C674.284 346.488 674.22 346.392 674.092 346.392C673.964 346.328 673.836 346.36 673.708 346.488C671.084 349.304 667.372 350.712 662.572 350.712C658.412 350.712 654.604 349.656 651.148 347.544C647.692 345.432 645.292 342.2 643.948 337.848C643.116 334.84 642.7 330.968 642.7 326.232C642.7 320.92 643.212 316.856 644.236 314.04C645.516 310.136 647.724 307.032 650.86 304.728C653.996 302.36 657.676 301.176 661.9 301.176C666.956 301.176 670.892 302.648 673.708 305.592C673.836 305.784 673.964 305.848 674.092 305.784C674.22 305.72 674.284 305.592 674.284 305.4V303.096ZM673.612 334.68C673.868 333.72 674.028 332.696 674.092 331.608C674.22 330.456 674.284 328.632 674.284 326.136C674.284 323.704 674.22 321.976 674.092 320.952C674.028 319.864 673.836 318.808 673.516 317.784C673.004 315.672 671.948 313.976 670.348 312.696C668.812 311.416 666.828 310.776 664.396 310.776C662.092 310.776 660.14 311.416 658.54 312.696C656.94 313.976 655.788 315.672 655.084 317.784C654.316 319.576 653.932 322.392 653.932 326.232C653.932 330.2 654.252 332.984 654.892 334.584C655.532 336.632 656.684 338.328 658.348 339.672C660.076 340.952 662.124 341.592 664.492 341.592C666.988 341.592 669.004 340.952 670.54 339.672C672.076 338.392 673.1 336.728 673.612 334.68ZM215.204 447C214.884 447 214.596 446.904 214.34 446.712C214.148 446.456 214.052 446.168 214.052 445.848V380.952C214.052 380.632 214.148 380.376 214.34 380.184C214.596 379.928 214.884 379.8 215.204 379.8H238.628C243.172 379.8 247.172 380.6 250.628 382.2C254.084 383.8 256.74 386.104 258.596 389.112C260.516 392.056 261.476 395.512 261.476 399.48V427.32C261.476 431.288 260.516 434.776 258.596 437.784C256.74 440.728 254.084 443 250.628 444.6C247.172 446.2 243.172 447 238.628 447H215.204ZM225.188 436.92C225.188 437.24 225.348 437.4 225.668 437.4H239.108C242.5 437.4 245.188 436.344 247.172 434.232C249.22 432.056 250.276 429.176 250.34 425.592V401.304C250.34 397.656 249.316 394.776 247.268 392.664C245.22 390.488 242.468 389.4 239.012 389.4H225.668C225.348 389.4 225.188 389.56 225.188 389.88V436.92ZM276.275 391.224C274.291 391.224 272.659 390.584 271.379 389.304C270.099 388.024 269.459 386.392 269.459 384.408C269.459 382.424 270.099 380.792 271.379 379.512C272.659 378.232 274.291 377.592 276.275 377.592C278.259 377.592 279.891 378.232 281.171 379.512C282.451 380.792 283.091 382.424 283.091 384.408C283.091 386.392 282.451 388.024 281.171 389.304C279.891 390.584 278.259 391.224 276.275 391.224ZM271.667 447C271.347 447 271.059 446.904 270.803 446.712C270.611 446.456 270.515 446.168 270.515 445.848V399C270.515 398.68 270.611 398.424 270.803 398.232C271.059 397.976 271.347 397.848 271.667 397.848H280.499C280.819 397.848 281.075 397.976 281.267 398.232C281.523 398.424 281.651 398.68 281.651 399V445.848C281.651 446.168 281.523 446.456 281.267 446.712C281.075 446.904 280.819 447 280.499 447H271.667ZM310.248 447.576C306.216 447.576 302.664 447 299.592 445.848C296.584 444.632 294.248 443 292.584 440.952C290.92 438.84 290.088 436.504 290.088 433.944V433.08C290.088 432.76 290.184 432.504 290.376 432.312C290.632 432.056 290.92 431.928 291.24 431.928H299.688C300.008 431.928 300.264 432.056 300.456 432.312C300.712 432.504 300.84 432.76 300.84 433.08V433.272C300.84 434.872 301.704 436.28 303.432 437.496C305.224 438.648 307.464 439.224 310.152 439.224C312.712 439.224 314.792 438.712 316.392 437.688C317.992 436.6 318.792 435.256 318.792 433.656C318.792 432.184 318.12 431.096 316.776 430.392C315.496 429.624 313.384 428.824 310.44 427.992L306.792 426.84C303.528 425.88 300.776 424.856 298.536 423.768C296.296 422.68 294.408 421.208 292.872 419.352C291.336 417.432 290.568 415 290.568 412.056C290.568 407.576 292.328 404.024 295.848 401.4C299.368 398.712 304.008 397.368 309.768 397.368C313.672 397.368 317.096 398.008 320.04 399.288C322.984 400.504 325.256 402.232 326.856 404.472C328.456 406.648 329.256 409.144 329.256 411.96C329.256 412.28 329.128 412.568 328.872 412.824C328.68 413.016 328.424 413.112 328.104 413.112H319.944C319.624 413.112 319.336 413.016 319.08 412.824C318.888 412.568 318.792 412.28 318.792 411.96C318.792 410.296 317.96 408.92 316.296 407.832C314.696 406.68 312.488 406.104 309.672 406.104C307.176 406.104 305.128 406.584 303.528 407.544C301.992 408.44 301.224 409.72 301.224 411.384C301.224 412.92 301.96 414.104 303.432 414.936C304.968 415.704 307.496 416.568 311.016 417.528L313.128 418.104C316.52 419.128 319.368 420.184 321.672 421.272C323.976 422.296 325.928 423.768 327.528 425.688C329.128 427.544 329.928 429.976 329.928 432.984C329.928 437.528 328.136 441.112 324.552 443.736C320.968 446.296 316.2 447.576 310.248 447.576ZM378.52 410.616C379.672 413.88 380.248 417.88 380.248 422.616C380.248 427.16 379.704 431.064 378.616 434.328C377.208 438.552 374.936 441.848 371.8 444.216C368.728 446.584 364.824 447.768 360.088 447.768C355.544 447.768 351.896 446.136 349.144 442.872C349.016 442.744 348.888 442.712 348.76 442.776C348.632 442.84 348.568 442.968 348.568 443.16V463.992C348.568 464.312 348.44 464.568 348.184 464.76C347.992 465.016 347.736 465.144 347.416 465.144H338.584C338.264 465.144 337.976 465.016 337.72 464.76C337.528 464.568 337.432 464.312 337.432 463.992V399.096C337.432 398.776 337.528 398.52 337.72 398.328C337.976 398.072 338.264 397.944 338.584 397.944H347.416C347.736 397.944 347.992 398.072 348.184 398.328C348.44 398.52 348.568 398.776 348.568 399.096V401.976C348.568 402.168 348.632 402.296 348.76 402.36C348.888 402.424 349.016 402.36 349.144 402.168C351.96 398.84 355.64 397.176 360.184 397.176C364.728 397.176 368.568 398.36 371.704 400.728C374.84 403.096 377.112 406.392 378.52 410.616ZM366.04 434.136C367.96 431.192 368.92 427.288 368.92 422.424C368.92 417.752 368.152 414.072 366.616 411.384C364.824 408.248 362.104 406.68 358.456 406.68C355.128 406.68 352.632 408.216 350.968 411.288C349.496 413.784 348.76 417.496 348.76 422.424C348.76 427.48 349.56 431.32 351.16 433.944C352.824 436.76 355.224 438.168 358.36 438.168C361.752 438.168 364.312 436.824 366.04 434.136ZM389.798 447C389.478 447 389.19 446.904 388.934 446.712C388.742 446.456 388.646 446.168 388.646 445.848V380.952C388.646 380.632 388.742 380.376 388.934 380.184C389.19 379.928 389.478 379.8 389.798 379.8H398.63C398.95 379.8 399.206 379.928 399.398 380.184C399.654 380.376 399.782 380.632 399.782 380.952V445.848C399.782 446.168 399.654 446.456 399.398 446.712C399.206 446.904 398.95 447 398.63 447H389.798ZM427.935 397.176C431.967 397.176 435.519 397.88 438.591 399.288C441.663 400.696 444.031 402.648 445.695 405.144C447.359 407.576 448.191 410.36 448.191 413.496V445.848C448.191 446.168 448.063 446.456 447.807 446.712C447.615 446.904 447.359 447 447.039 447H438.207C437.887 447 437.599 446.904 437.343 446.712C437.151 446.456 437.055 446.168 437.055 445.848V442.776C437.055 442.584 436.991 442.488 436.863 442.488C436.735 442.424 436.607 442.456 436.479 442.584C433.343 446.04 428.799 447.768 422.847 447.768C418.047 447.768 414.079 446.552 410.943 444.12C407.871 441.688 406.335 438.072 406.335 433.272C406.335 428.28 408.063 424.408 411.519 421.656C415.039 418.84 419.967 417.432 426.303 417.432H436.575C436.895 417.432 437.055 417.272 437.055 416.952V414.648C437.055 412.152 436.319 410.232 434.847 408.888C433.375 407.48 431.167 406.776 428.223 406.776C425.791 406.776 423.807 407.224 422.271 408.12C420.799 408.952 419.871 410.136 419.487 411.672C419.295 412.44 418.847 412.76 418.143 412.632L408.831 411.48C408.511 411.416 408.223 411.32 407.967 411.192C407.775 411 407.711 410.776 407.775 410.52C408.287 406.616 410.367 403.416 414.015 400.92C417.727 398.424 422.367 397.176 427.935 397.176ZM425.631 438.936C428.767 438.936 431.455 438.104 433.695 436.44C435.935 434.776 437.055 432.664 437.055 430.104V425.592C437.055 425.272 436.895 425.112 436.575 425.112H428.511C425.119 425.112 422.431 425.752 420.447 427.032C418.527 428.312 417.567 430.136 417.567 432.504C417.567 434.552 418.303 436.152 419.775 437.304C421.311 438.392 423.263 438.936 425.631 438.936ZM454.979 466.104C454.787 466.104 454.627 465.976 454.499 465.72C454.371 465.528 454.307 465.272 454.307 464.952V458.04C454.307 457.72 454.403 457.432 454.595 457.176C454.851 456.984 455.139 456.888 455.459 456.888H455.555C458.179 456.824 460.227 456.536 461.699 456.024C463.171 455.576 464.387 454.68 465.347 453.336C466.307 451.992 467.171 449.976 467.939 447.288C468.003 447.16 468.003 446.968 467.939 446.712L452.099 399.192C452.035 399.064 452.003 398.904 452.003 398.712C452.003 398.136 452.323 397.848 452.963 397.848H462.371C463.075 397.848 463.523 398.168 463.715 398.808L473.315 432.6C473.379 432.792 473.475 432.888 473.603 432.888C473.731 432.888 473.827 432.792 473.891 432.6L483.491 398.808C483.683 398.168 484.131 397.848 484.835 397.848H493.955C494.339 397.848 494.595 397.976 494.723 398.232C494.915 398.424 494.947 398.744 494.819 399.192L477.923 449.688C476.323 454.232 474.755 457.624 473.219 459.864C471.683 462.104 469.571 463.704 466.883 464.664C464.259 465.624 460.515 466.104 455.651 466.104H454.979Z" fill="#303A50"/>
<rect x="240" width="224" height="182" rx="28" fill="#8A5AED"/>
<rect x="296" y="196" width="112" height="28" rx="14" fill="#8A5AED"/>
<path d="M320.5 49C320.5 41.268 326.768 35 334.5 35H401C408.732 35 415 41.268 415 49V129.5C415 139.165 403.247 147 388.75 147C374.253 147 366 139.165 366 129.5C366 119.835 374.253 112 388.75 112C389.338 112 389.922 112.013 390.5 112.038V112H400C400.552 112 401 111.552 401 111V56C401 52.134 397.866 49 394 49H341.5C337.634 49 334.5 52.134 334.5 56V129.5C334.5 139.165 322.747 147 308.25 147C293.753 147 285.5 139.165 285.5 129.5C285.5 119.835 293.753 112 308.25 112C308.838 112 310 112.038 310 112.038V112H319.5C320.052 112 320.5 111.552 320.5 111V49Z" fill="white"/>
</svg>
