<svg width="24" height="24" viewBox="0 0 24 24" fill="none" xmlns="http://www.w3.org/2000/svg">
<circle cx="12" cy="12" r="9" fill="#676B7E" stroke="#676B7E" stroke-width="2"/>
<circle cx="12" cy="12" r="7" fill="#F4F4FA" stroke="#F4F4FA" stroke-width="2"/>
<path d="M12 15L10 16.5C10.5027 17.1703 11.3078 17.5442 12.1442 17.4958C12.9807 17.4475 13.7373 16.9834 14.1594 16.2597L12 15ZM11 9.5C10.1716 8.39543 8.60457 8.17157 7.5 9C6.39543 9.82843 6.17157 11.3954 7 12.5L11 9.5ZM21.1594 4.25968C21.8551 3.06705 21.4523 1.53625 20.2597 0.840553C19.067 0.144852 17.5363 0.547693 16.8406 1.74032L21.1594 4.25968ZM14 13.5L11 9.5L7 12.5L10 16.5L14 13.5ZM14.1594 16.2597L21.1594 4.25968L16.8406 1.74032L9.84055 13.7403L14.1594 16.2597Z" fill="#676B7E"/>
<path d="M12 15L11.2 15.6C11.4011 15.8681 11.7231 16.0177 12.0577 15.9983C12.3923 15.979 12.6949 15.7934 12.8638 15.5039L12 15ZM9.8 10.4C9.46863 9.95817 8.84183 9.86863 8.4 10.2C7.95817 10.5314 7.86863 11.1582 8.2 11.6L9.8 10.4ZM19.8638 3.50387C20.1421 3.02682 19.9809 2.4145 19.5039 2.13622C19.0268 1.85794 18.4145 2.01908 18.1362 2.49613L19.8638 3.50387ZM12.8 14.4L9.8 10.4L8.2 11.6L11.2 15.6L12.8 14.4ZM12.8638 15.5039L19.8638 3.50387L18.1362 2.49613L11.1362 14.4961L12.8638 15.5039Z" fill="#F4F4FA"/>
</svg>
