<svg width="64" height="64" viewBox="0 0 64 64" fill="none" xmlns="http://www.w3.org/2000/svg">
<path opacity="0.3" d="M51.4136 22.9334L49.5469 19.7067L46.1603 21.0667L43.3336 22.2134L40.9069 20.3467C39.8669 19.5467 38.7736 18.9067 37.6269 18.4534L34.8002 17.3067L34.3736 14.2934L33.8669 10.6667H30.1336L29.6269 14.2667L29.2002 17.2801L26.3736 18.4534C25.2803 18.9067 24.1869 19.5467 23.0402 20.4001L20.6402 22.2134L17.8402 21.0934L14.4536 19.7067L12.5869 22.9334L15.4669 25.1734L17.8402 27.0401L17.4669 30.0534C17.3869 30.8534 17.3336 31.4668 17.3336 32.0001C17.3336 32.5334 17.3869 33.1467 17.4669 33.9467L17.8402 36.9601L15.4669 38.8268L12.5869 41.0668L14.4536 44.2934L17.8402 42.9334L20.6669 41.7868L23.0936 43.6534C24.1336 44.4534 25.2269 45.0934 26.3736 45.5468L29.2002 46.6934L29.6269 49.7068L30.1336 53.3334H33.8403L34.3469 49.7334L34.7736 46.7201L37.6003 45.5734C38.6936 45.1201 39.7869 44.4801 40.9336 43.6268L43.3336 41.8134L46.1069 42.9334L49.4936 44.2934L51.3603 41.0668L48.4803 38.8268L46.1069 36.9601L46.4803 33.9467C46.5869 33.1201 46.6136 32.5601 46.6136 32.0001C46.6136 31.4401 46.5603 30.8534 46.4803 30.0534L46.1069 27.0401L48.4803 25.1734L51.4136 22.9334ZM32.0002 42.6668C26.1069 42.6668 21.3336 37.8934 21.3336 32.0001C21.3336 26.1067 26.1069 21.3334 32.0002 21.3334C37.8936 21.3334 42.6669 26.1067 42.6669 32.0001C42.6669 37.8934 37.8936 42.6668 32.0002 42.6668Z" fill="white"/>
<path d="M51.8129 34.6132C51.9196 33.7599 51.9996 32.9066 51.9996 31.9999C51.9996 31.0933 51.9196 30.2399 51.8129 29.3866L57.4396 24.9866C57.9462 24.5866 58.0796 23.8666 57.7596 23.2799L52.4262 14.0533C52.1862 13.6266 51.7329 13.3866 51.2529 13.3866C51.0929 13.3866 50.9329 13.4133 50.7996 13.4666L44.1596 16.1333C42.7729 15.0666 41.2796 14.1866 39.6529 13.5199L38.6396 6.45325C38.5596 5.81325 37.9996 5.33325 37.3329 5.33325H26.6662C25.9996 5.33325 25.4396 5.81325 25.3596 6.45325L24.3462 13.5199C22.7196 14.1866 21.2262 15.0933 19.8396 16.1333L13.1996 13.4666C13.0396 13.4133 12.8796 13.3866 12.7196 13.3866C12.2662 13.3866 11.8129 13.6266 11.5729 14.0533L6.23957 23.2799C5.89291 23.8666 6.05291 24.5866 6.55957 24.9866L12.1862 29.3866C12.0796 30.2399 11.9996 31.1199 11.9996 31.9999C11.9996 32.8799 12.0796 33.7599 12.1862 34.6132L6.55957 39.0132C6.05291 39.4132 5.91957 40.1333 6.23957 40.7199L11.5729 49.9466C11.8129 50.3732 12.2662 50.6132 12.7462 50.6132C12.9062 50.6132 13.0662 50.5866 13.1996 50.5333L19.8396 47.8666C21.2262 48.9333 22.7196 49.8133 24.3462 50.4799L25.3596 57.5466C25.4396 58.1866 25.9996 58.6666 26.6662 58.6666H37.3329C37.9996 58.6666 38.5596 58.1866 38.6396 57.5466L39.6529 50.4799C41.2796 49.8133 42.7729 48.9066 44.1596 47.8666L50.7996 50.5333C50.9596 50.5866 51.1196 50.6132 51.2796 50.6132C51.7329 50.6132 52.1862 50.3732 52.4262 49.9466L57.7596 40.7199C58.0796 40.1333 57.9462 39.4132 57.4396 39.0132L51.8129 34.6132ZM46.5329 30.0533C46.6396 30.8799 46.6662 31.4399 46.6662 31.9999C46.6662 32.5599 46.6129 33.1466 46.5329 33.9466L46.1596 36.9599L48.5329 38.8266L51.4129 41.0666L49.5462 44.2933L46.1596 42.9333L43.3862 41.8133L40.9862 43.6266C39.8396 44.4799 38.7462 45.1199 37.6529 45.5732L34.8262 46.7199L34.3996 49.7332L33.8662 53.3332H30.1329L29.6262 49.7332L29.1996 46.7199L26.3729 45.5732C25.2262 45.0933 24.1596 44.4799 23.0929 43.6799L20.6662 41.8133L17.8396 42.9599L14.4529 44.3199L12.5862 41.0933L15.4662 38.8532L17.8396 36.9866L17.4662 33.9732C17.3862 33.1466 17.3329 32.5333 17.3329 31.9999C17.3329 31.4666 17.3862 30.8533 17.4662 30.0533L17.8396 27.0399L15.4662 25.1733L12.5862 22.9333L14.4529 19.7066L17.8396 21.0666L20.6129 22.1866L23.0129 20.3733C24.1596 19.5199 25.2529 18.8799 26.3462 18.4266L29.1729 17.2799L29.5996 14.2666L30.1329 10.6666H33.8396L34.3462 14.2666L34.7729 17.2799L37.5996 18.4266C38.7462 18.9066 39.8129 19.5199 40.8796 20.3199L43.3062 22.1866L46.1329 21.0399L49.5196 19.6799L51.3862 22.9066L48.5329 25.1733L46.1596 27.0399L46.5329 30.0533ZM31.9996 21.3333C26.1062 21.3333 21.3329 26.1066 21.3329 31.9999C21.3329 37.8932 26.1062 42.6666 31.9996 42.6666C37.8929 42.6666 42.6662 37.8932 42.6662 31.9999C42.6662 26.1066 37.8929 21.3333 31.9996 21.3333ZM31.9996 37.3333C29.0662 37.3333 26.6662 34.9333 26.6662 31.9999C26.6662 29.0666 29.0662 26.6666 31.9996 26.6666C34.9329 26.6666 37.3329 29.0666 37.3329 31.9999C37.3329 34.9333 34.9329 37.3333 31.9996 37.3333Z" fill="white"/>
</svg>
